<?xml version="1.0" standalone="no"?><svg xmlns:xlink="http://www.w3.org/1999/xlink" xmlns="http://www.w3.org/2000/svg" viewBox="0 0 1000 909.0909090909091" preserveAspectRatio="xMaxYMax slice"><g transform="scale(1.0583130489998942)"><rect x="0" y="0" width="944.9000000000001" height="859" fill="#ffffff"/><rect x="0" y="0" width="85.9" height="85.9" fill="#fdb7b7"/><path d="M 0 0 A 85.9 85.9 0 0 1 85.9 85.9 L 0 85.9" fill="#ffffff"/><rect x="85.9" y="0" width="85.9" height="85.9" fill="#ffffff"/><rect x="85.9" y="0" width="42.95" height="42.95" fill="#fdb5b5"/><polygon points="85.9,0 128.85000000000002,0 85.9,42.95" fill="#ffffff"/><rect x="128.85" y="0" width="42.95" height="42.95" fill="#fff4f4"/><polygon points="128.85,0 171.8,0 171.8,42.95" fill="#ffffff"/><rect x="85.9" y="42.95" width="42.95" height="42.95" fill="#ffffff"/><polygon points="85.9,42.95 128.85000000000002,85.9 85.9,85.9" fill="#ffffff"/><rect x="128.85" y="42.95" width="42.95" height="42.95" fill="#fdc6c6"/><polygon points="171.8,42.95 171.8,85.9 128.85,85.9" fill="#ffffff"/><rect x="171.8" y="0" width="85.9" height="85.9" fill="#f91515"/><rect x="171.8" y="0" width="85.9" height="85.9" fill="#ffffff"/><rect x="257.70000000000005" y="0" width="85.9" height="85.9" fill="#ffffff"/><rect x="257.7" y="0" width="42.95" height="42.95" fill="#ffffff"/><path d="M 257.7 0 A 42.95 42.95 0 0 0 300.65 42.95 L 300.65 0" fill="#ffffff"/><rect x="300.65" y="0" width="42.95" height="42.95" fill="#fc9b9b"/><path d="M 300.65 42.95 A 42.95 42.95 0 0 0 343.59999999999997 0 L 300.65 0" fill="#ffffff"/><rect x="257.7" y="42.95" width="42.95" height="42.95" fill="#ffffff"/><path d="M 257.7 85.9 A 42.95 42.95 0 0 1  300.65 42.95 L 300.65 85.9" fill="#fee9e9"/><rect x="300.65" y="42.95" width="42.95" height="42.95" fill="#fee9e9"/><path d="M 300.65 42.95 A 42.95 42.95 0 0 1 343.59999999999997 85.9 L 300.65 85.9" fill="#ffffff"/><rect x="343.6" y="0" width="85.9" height="85.9" fill="#ffffff"/><rect x="343.6" y="0" width="42.95" height="42.95" fill="#f91313"/><path d="M 343.6 0 A 42.95 42.95 0 0 1 386.55 42.95 L 343.6 42.95" fill="#ffffff"/><rect x="386.55" y="0" width="42.95" height="42.95" fill="#ffffff"/><path d="M 386.55 42.95 A 42.95 42.95 0 0 1  429.5 0 L 429.5 42.95" fill="#fc8787"/><rect x="343.6" y="42.95" width="42.95" height="42.95" fill="#ffffff"/><path d="M 343.6 85.9 A 42.95 42.95 0 0 0 386.55 42.95 L 343.6 42.95" fill="#fc9999"/><rect x="386.55" y="42.95" width="42.95" height="42.95" fill="#fed3d3"/><path d="M 386.55 42.95 A 42.95 42.95 0 0 0 429.5 85.9 L 429.5 42.95" fill="#ffffff"/><rect x="429.5" y="0" width="85.9" height="85.9" fill="#ffffff"/><polygon points="429.5,0 515.4,85.9 429.5,85.9" fill="#ffffff"/><rect x="515.4000000000001" y="0" width="85.9" height="85.9" fill="#ffffff"/><rect x="515.4" y="0" width="42.95" height="42.95" fill="#ffffff"/><polygon points="515.4,0 558.35,0 515.4,42.95" fill="#f91717"/><rect x="558.35" y="0" width="42.95" height="42.95" fill="#fa4242"/><polygon points="558.35,0 601.3000000000001,0 601.3000000000001,42.95" fill="#ffffff"/><rect x="515.4" y="42.95" width="42.95" height="42.95" fill="#ffffff"/><polygon points="558.35,42.95 558.35,85.9 515.4,85.9" fill="#fee9e9"/><rect x="558.35" y="42.95" width="42.95" height="42.95" fill="#f81212"/><polygon points="558.35,42.95 601.3000000000001,85.9 558.35,85.9" fill="#ffffff"/><rect x="601.3000000000001" y="0" width="85.9" height="85.9" fill="#ffffff"/><rect x="601.3" y="0" width="42.95" height="42.95" fill="#ffffff"/><circle cx="622.775" cy="21.475" r="21.475" fill="#fed9d9"/><rect x="644.25" y="0" width="42.95" height="42.95" fill="#ffffff"/><rect x="644.25" y="0" width="42.95" height="42.95" fill="#ffffff"/><rect x="601.3" y="42.95" width="42.95" height="42.95" fill="#ffffff"/><circle cx="622.775" cy="64.42500000000001" r="21.475" fill="#ffffff"/><rect x="644.25" y="42.95" width="42.95" height="42.95" fill="#fdaaaa"/><rect x="644.25" y="42.95" width="42.95" height="42.95" fill="#ffffff"/><rect x="687.2" y="0" width="85.9" height="85.9" fill="#ffffff"/><rect x="687.2" y="0" width="42.95" height="42.95" fill="#ffffff"/><polygon points="687.2,0 730.1500000000001,0 687.2,42.95" fill="#fb7b7b"/><rect x="730.15" y="0" width="42.95" height="42.95" fill="#fa4c4c"/><polygon points="773.1,0 773.1,42.95 730.15,42.95" fill="#ffffff"/><rect x="687.2" y="42.95" width="42.95" height="42.95" fill="#f81111"/><polygon points="687.2,42.95 730.1500000000001,42.95 730.1500000000001,85.9" fill="#ffffff"/><rect x="730.15" y="42.95" width="42.95" height="42.95" fill="#ffffff"/><polygon points="730.15,42.95 773.1,85.9 730.15,85.9" fill="#ffffff"/><rect x="773.1" y="0" width="85.9" height="85.9" fill="#ffffff"/><rect x="773.1" y="0" width="42.95" height="42.95" fill="#f93333"/><circle cx="794.575" cy="21.475" r="21.475" fill="#fa4e4e"/><rect x="816.05" y="0" width="42.95" height="42.95" fill="#ffffff"/><rect x="816.05" y="0" width="42.95" height="42.95" fill="#f91f1f"/><rect x="773.1" y="42.95" width="42.95" height="42.95" fill="#ffffff"/><circle cx="794.575" cy="64.42500000000001" r="21.475" fill="#fb6464"/><rect x="816.05" y="42.95" width="42.95" height="42.95" fill="#f93131"/><rect x="816.05" y="42.95" width="42.95" height="42.95" fill="#fa4040"/><rect x="859" y="0" width="85.9" height="85.9" fill="#fa4040"/><path d="M 859 0 A 85.9 85.9 0 0 0 944.9 85.9 L 944.9 0" fill="#fffdfd"/><rect x="0" y="85.9" width="85.9" height="85.9" fill="#ffffff"/><rect x="0" y="85.9" width="42.95" height="42.95" fill="#fdb7b7"/><path d="M 0 128.85000000000002 A 42.95 42.95 0 0 1  42.95 85.9 L 42.95 128.85000000000002" fill="#ffffff"/><rect x="42.95" y="85.9" width="42.95" height="42.95" fill="#fff2f2"/><path d="M 42.95 85.9 A 42.95 42.95 0 0 1 85.9 128.85000000000002 L 42.95 128.85000000000002" fill="#fa5252"/><rect x="0" y="128.85" width="42.95" height="42.95" fill="#ffffff"/><path d="M 0 128.85 A 42.95 42.95 0 0 0 42.95 171.8 L 42.95 128.85" fill="#fca1a1"/><rect x="42.95" y="128.85" width="42.95" height="42.95" fill="#ffffff"/><path d="M 42.95 171.8 A 42.95 42.95 0 0 0 85.9 128.85 L 42.95 128.85" fill="#ffffff"/><rect x="85.9" y="85.9" width="85.9" height="85.9" fill="#ffffff"/><rect x="85.9" y="85.9" width="85.9" height="85.9" fill="#ffffff"/><rect x="171.8" y="85.9" width="85.9" height="85.9" fill="#ffffff"/><rect x="171.8" y="85.9" width="42.95" height="42.95" fill="#ffffff"/><path d="M 171.8 85.9 A 42.95 42.95 0 0 1 214.75 128.85000000000002 L 171.8 128.85000000000002" fill="#fb7474"/><rect x="214.75" y="85.9" width="42.95" height="42.95" fill="#fb7e7e"/><path d="M 214.75 128.85000000000002 A 42.95 42.95 0 0 1  257.7 85.9 L 257.7 128.85000000000002" fill="#fee7e7"/><rect x="171.8" y="128.85" width="42.95" height="42.95" fill="#ffffff"/><path d="M 171.8 171.8 A 42.95 42.95 0 0 0 214.75 128.85 L 171.8 128.85" fill="#ffffff"/><rect x="214.75" y="128.85" width="42.95" height="42.95" fill="#f92828"/><path d="M 214.75 128.85 A 42.95 42.95 0 0 0 257.7 171.8 L 257.7 128.85" fill="#ffffff"/><rect x="257.70000000000005" y="85.9" width="85.9" height="85.9" fill="#ffffff"/><rect x="257.7" y="85.9" width="42.95" height="42.95" fill="#ffffff"/><path d="M 257.7 128.85000000000002 A 42.95 42.95 0 0 0 300.65 85.9 L 257.7 85.9" fill="#ffffff"/><rect x="300.65" y="85.9" width="42.95" height="42.95" fill="#ffffff"/><path d="M 300.65 85.9 A 42.95 42.95 0 0 0 343.59999999999997 128.85000000000002 L 343.59999999999997 85.9" fill="#fdb9b9"/><rect x="257.7" y="128.85" width="42.95" height="42.95" fill="#fffcfc"/><path d="M 257.7 128.85 A 42.95 42.95 0 0 1 300.65 171.8 L 257.7 171.8" fill="#ffffff"/><rect x="300.65" y="128.85" width="42.95" height="42.95" fill="#f80707"/><path d="M 300.65 171.8 A 42.95 42.95 0 0 1  343.59999999999997 128.85 L 343.59999999999997 171.8" fill="#fa5656"/><rect x="343.6" y="85.9" width="85.9" height="85.9" fill="#fa4141"/><path d="M 343.6 171.8 A 85.9 85.9 0 0 1  429.5 85.9 L 429.5 171.8" fill="#ffffff"/><rect x="429.5" y="85.9" width="85.9" height="85.9" fill="#ffffff"/><rect x="429.5" y="85.9" width="42.95" height="42.95" fill="#ffffff"/><path d="M 429.5 128.85000000000002 A 42.95 42.95 0 0 1  472.45 85.9 L 472.45 128.85000000000002" fill="#f93636"/><rect x="472.45" y="85.9" width="42.95" height="42.95" fill="#ffffff"/><path d="M 472.45 85.9 A 42.95 42.95 0 0 1 515.4 128.85000000000002 L 472.45 128.85000000000002" fill="#ffffff"/><rect x="429.5" y="128.85" width="42.95" height="42.95" fill="#ffffff"/><path d="M 429.5 128.85 A 42.95 42.95 0 0 0 472.45 171.8 L 472.45 128.85" fill="#fc8b8b"/><rect x="472.45" y="128.85" width="42.95" height="42.95" fill="#ffffff"/><path d="M 472.45 171.8 A 42.95 42.95 0 0 0 515.4 128.85 L 472.45 128.85" fill="#fca0a0"/><rect x="515.4" y="85.9" width="85.9" height="85.9" fill="#ffffff"/><rect x="515.4" y="85.9" width="85.9" height="85.9" fill="#ffffff"/><rect x="601.3" y="85.9" width="85.9" height="85.9" fill="#fc8787"/><polygon points="601.3,85.9 687.1999999999999,171.8 601.3,171.8" fill="#ffffff"/><rect x="687.2" y="85.9" width="85.9" height="85.9" fill="#fedada"/><polygon points="687.2,85.9 773.1,85.9 687.2,171.8" fill="#fff2f2"/><rect x="773.1" y="85.9" width="85.9" height="85.9" fill="#ffffff"/><rect x="773.1" y="85.9" width="42.95" height="42.95" fill="#ffffff"/><path d="M 773.1 128.85000000000002 A 42.95 42.95 0 0 0 816.0500000000001 85.9 L 773.1 85.9" fill="#f80b0b"/><rect x="816.05" y="85.9" width="42.95" height="42.95" fill="#fb6363"/><path d="M 816.05 85.9 A 42.95 42.95 0 0 0 859 128.85000000000002 L 859 85.9" fill="#fedbdb"/><rect x="773.1" y="128.85" width="42.95" height="42.95" fill="#ffffff"/><path d="M 773.1 128.85 A 42.95 42.95 0 0 1 816.0500000000001 171.8 L 773.1 171.8" fill="#ffffff"/><rect x="816.05" y="128.85" width="42.95" height="42.95" fill="#ffffff"/><path d="M 816.05 171.8 A 42.95 42.95 0 0 1  859 128.85 L 859 171.8" fill="#ffffff"/><rect x="859" y="85.9" width="85.9" height="85.9" fill="#ffffff"/><rect x="859" y="85.9" width="85.9" height="85.9" fill="#f93636"/><rect x="0" y="171.8" width="85.9" height="85.9" fill="#ffffff"/><polygon points="0,171.8 85.9,171.8 0,257.70000000000005" fill="#f80b0b"/><rect x="85.9" y="171.8" width="85.9" height="85.9" fill="#ffffff"/><rect x="85.9" y="171.8" width="42.95" height="42.95" fill="#fb6868"/><path d="M 85.9 214.75 A 42.95 42.95 0 0 0 128.85000000000002 171.8 L 85.9 171.8" fill="#fed0d0"/><rect x="128.85" y="171.8" width="42.95" height="42.95" fill="#fa5757"/><path d="M 128.85 171.8 A 42.95 42.95 0 0 0 171.8 214.75 L 171.8 171.8" fill="#ffffff"/><rect x="85.9" y="214.75" width="42.95" height="42.95" fill="#fdc0c0"/><path d="M 85.9 214.75 A 42.95 42.95 0 0 1 128.85000000000002 257.7 L 85.9 257.7" fill="#fdb9b9"/><rect x="128.85" y="214.75" width="42.95" height="42.95" fill="#ffffff"/><path d="M 128.85 257.7 A 42.95 42.95 0 0 1  171.8 214.75 L 171.8 257.7" fill="#ffffff"/><rect x="171.8" y="171.8" width="85.9" height="85.9" fill="#ffffff"/><rect x="171.8" y="171.8" width="42.95" height="42.95" fill="#ffffff"/><path d="M 171.8 171.8 A 42.95 42.95 0 0 0 214.75 214.75 L 214.75 171.8" fill="#ffffff"/><rect x="214.75" y="171.8" width="42.95" height="42.95" fill="#fdb5b5"/><path d="M 214.75 214.75 A 42.95 42.95 0 0 0 257.7 171.8 L 214.75 171.8" fill="#ffffff"/><rect x="171.8" y="214.75" width="42.95" height="42.95" fill="#ffffff"/><path d="M 171.8 257.7 A 42.95 42.95 0 0 1  214.75 214.75 L 214.75 257.7" fill="#fedcdc"/><rect x="214.75" y="214.75" width="42.95" height="42.95" fill="#ffffff"/><path d="M 214.75 214.75 A 42.95 42.95 0 0 1 257.7 257.7 L 214.75 257.7" fill="#f92a2a"/><rect x="257.7" y="171.8" width="85.9" height="85.9" fill="#ffffff"/><path d="M 257.7 171.8 A 85.9 85.9 0 0 0 343.6 257.70000000000005 L 343.6 171.8" fill="#ffffff"/><rect x="343.6" y="171.8" width="85.9" height="85.9" fill="#fc8282"/><path d="M 343.6 171.8 A 85.9 85.9 0 0 1  429.5 257.70000000000005 L 343.6 171.8 A 85.9 85.9 0 0 0 429.5 257.70000000000005" fill="#ffffff"/><rect x="429.5" y="171.8" width="85.9" height="85.9" fill="#ffffff"/><path d="M 429.5 171.8 A 85.9 85.9 0 0 1 515.4 257.70000000000005 L 429.5 257.70000000000005" fill="#fedede"/><rect x="515.4" y="171.8" width="85.9" height="85.9" fill="#ffffff"/><polygon points="515.4,171.8 601.3,171.8 601.3,257.70000000000005" fill="#fa5757"/><rect x="601.3" y="171.8" width="85.9" height="85.9" fill="#ffffff"/><path d="M 601.3 171.8 A 85.9 85.9 0 0 0 687.1999999999999 257.70000000000005 L 687.1999999999999 171.8" fill="#fa5252"/><rect x="687.2" y="171.8" width="85.9" height="85.9" fill="#ffffff"/><polygon points="773.1,171.8 773.1,257.70000000000005 687.2,257.70000000000005" fill="#fffdfd"/><rect x="773.1" y="171.8" width="85.9" height="85.9" fill="#ffffff"/><polygon points="773.1,171.8 859,257.70000000000005 773.1,257.70000000000005" fill="#fc9494"/><rect x="859" y="171.8" width="85.9" height="85.9" fill="#ffffff"/><polygon points="859,171.8 944.9,171.8 944.9,257.70000000000005" fill="#fecece"/><rect x="0" y="257.7" width="85.9" height="85.9" fill="#fdaaaa"/><rect x="0" y="257.7" width="85.9" height="85.9" fill="#ffffff"/><rect x="85.9" y="257.7" width="85.9" height="85.9" fill="#fda8a8"/><path d="M 85.9 257.7 A 85.9 85.9 0 0 1  171.8 343.6 L 85.9 257.7 A 85.9 85.9 0 0 0 171.8 343.6" fill="#f93232"/><rect x="171.8" y="257.70000000000005" width="85.9" height="85.9" fill="#ffffff"/><rect x="171.8" y="257.7" width="42.95" height="42.95" fill="#ffffff"/><polygon points="171.8,257.7 214.75,257.7 171.8,300.65" fill="#ffffff"/><rect x="214.75" y="257.7" width="42.95" height="42.95" fill="#ffffff"/><polygon points="214.75,257.7 257.7,257.7 257.7,300.65" fill="#fedfdf"/><rect x="171.8" y="300.65" width="42.95" height="42.95" fill="#fedfdf"/><polygon points="171.8,300.65 214.75,343.59999999999997 171.8,343.59999999999997" fill="#ffffff"/><rect x="214.75" y="300.65" width="42.95" height="42.95" fill="#fa5252"/><polygon points="257.7,300.65 257.7,343.59999999999997 214.75,343.59999999999997" fill="#fb7c7c"/><rect x="257.70000000000005" y="257.70000000000005" width="85.9" height="85.9" fill="#ffffff"/><rect x="257.7" y="257.7" width="42.95" height="42.95" fill="#ffffff"/><polygon points="257.7,257.7 300.65,257.7 257.7,300.65" fill="#fa3f3f"/><rect x="300.65" y="257.7" width="42.95" height="42.95" fill="#ffffff"/><polygon points="300.65,257.7 343.59999999999997,257.7 343.59999999999997,300.65" fill="#ffffff"/><rect x="257.7" y="300.65" width="42.95" height="42.95" fill="#f93030"/><polygon points="300.65,300.65 300.65,343.59999999999997 257.7,343.59999999999997" fill="#ffffff"/><rect x="300.65" y="300.65" width="42.95" height="42.95" fill="#fa3e3e"/><polygon points="300.65,300.65 343.59999999999997,343.59999999999997 300.65,343.59999999999997" fill="#ffffff"/><rect x="343.6" y="257.70000000000005" width="85.9" height="85.9" fill="#ffffff"/><rect x="343.6" y="257.7" width="42.95" height="42.95" fill="#f92222"/><polygon points="343.6,257.7 386.55,257.7 343.6,300.65" fill="#ffffff"/><rect x="386.55" y="257.7" width="42.95" height="42.95" fill="#fc9090"/><polygon points="386.55,257.7 429.5,257.7 429.5,300.65" fill="#ffffff"/><rect x="343.6" y="300.65" width="42.95" height="42.95" fill="#ffffff"/><polygon points="386.55,300.65 386.55,343.59999999999997 343.6,343.59999999999997" fill="#ffffff"/><rect x="386.55" y="300.65" width="42.95" height="42.95" fill="#ffffff"/><polygon points="386.55,300.65 429.5,343.59999999999997 386.55,343.59999999999997" fill="#fedcdc"/><rect x="429.5" y="257.7" width="85.9" height="85.9" fill="#f80808"/><path d="M 429.5 343.6 A 85.9 85.9 0 0 1  515.4 257.7 L 515.4 343.6" fill="#f91919"/><rect x="515.4000000000001" y="257.70000000000005" width="85.9" height="85.9" fill="#ffffff"/><rect x="515.4" y="257.7" width="42.95" height="42.95" fill="#ffffff"/><path d="M 515.4 300.65 A 42.95 42.95 0 0 1  558.35 257.7 L 558.35 300.65" fill="#fdc0c0"/><rect x="558.35" y="257.7" width="42.95" height="42.95" fill="#f92f2f"/><path d="M 558.35 257.7 A 42.95 42.95 0 0 1 601.3000000000001 300.65 L 558.35 300.65" fill="#ffffff"/><rect x="515.4" y="300.65" width="42.95" height="42.95" fill="#f93131"/><path d="M 515.4 300.65 A 42.95 42.95 0 0 0 558.35 343.59999999999997 L 558.35 300.65" fill="#ffffff"/><rect x="558.35" y="300.65" width="42.95" height="42.95" fill="#ffffff"/><path d="M 558.35 343.59999999999997 A 42.95 42.95 0 0 0 601.3000000000001 300.65 L 558.35 300.65" fill="#fa4747"/><rect x="601.3" y="257.7" width="85.9" height="85.9" fill="#fa4a4a"/><path d="M 601.3 343.6 A 85.9 85.9 0 0 0 687.1999999999999 257.7 L 601.3 257.7" fill="#fca0a0"/><rect x="687.2" y="257.7" width="85.9" height="85.9" fill="#ffffff"/><path d="M 687.2 343.6 A 85.9 85.9 0 0 1  773.1 257.7 L 773.1 343.6" fill="#ffffff"/><rect x="773.1" y="257.7" width="85.9" height="85.9" fill="#ffffff"/><path d="M 773.1 343.6 A 85.9 85.9 0 0 0 859 257.7 L 773.1 257.7" fill="#ffffff"/><rect x="859" y="257.70000000000005" width="85.9" height="85.9" fill="#ffffff"/><rect x="859" y="257.7" width="42.95" height="42.95" fill="#ffffff"/><polygon points="859,257.7 901.95,257.7 859,300.65" fill="#fa4848"/><rect x="901.95" y="257.7" width="42.95" height="42.95" fill="#ffffff"/><polygon points="901.95,257.7 944.9000000000001,257.7 944.9000000000001,300.65" fill="#fa5353"/><rect x="859" y="300.65" width="42.95" height="42.95" fill="#fc9898"/><polygon points="859,300.65 901.95,343.59999999999997 859,343.59999999999997" fill="#ffffff"/><rect x="901.95" y="300.65" width="42.95" height="42.95" fill="#ffffff"/><polygon points="944.9000000000001,300.65 944.9000000000001,343.59999999999997 901.95,343.59999999999997" fill="#feeded"/><rect x="0" y="343.6" width="85.9" height="85.9" fill="#ffffff"/><polygon points="0,343.6 85.9,343.6 0,429.5" fill="#ffffff"/><rect x="85.9" y="343.6" width="85.9" height="85.9" fill="#ffffff"/><rect x="85.9" y="343.6" width="42.95" height="42.95" fill="#f93535"/><polygon points="85.9,343.6 128.85000000000002,343.6 85.9,386.55" fill="#ffffff"/><rect x="128.85" y="343.6" width="42.95" height="42.95" fill="#ffffff"/><polygon points="171.8,343.6 171.8,386.55 128.85,386.55" fill="#ffffff"/><rect x="85.9" y="386.55" width="42.95" height="42.95" fill="#ffffff"/><polygon points="85.9,386.55 128.85000000000002,386.55 128.85000000000002,429.5" fill="#fb6f6f"/><rect x="128.85" y="386.55" width="42.95" height="42.95" fill="#fed7d7"/><polygon points="128.85,386.55 171.8,429.5 128.85,429.5" fill="#ffffff"/><rect x="171.8" y="343.6" width="85.9" height="85.9" fill="#ffffff"/><path d="M 171.8 429.5 A 85.9 85.9 0 0 1  257.70000000000005 343.6 L 257.70000000000005 429.5" fill="#fdbfbf"/><rect x="257.70000000000005" y="343.6" width="85.9" height="85.9" fill="#ffffff"/><rect x="257.7" y="343.6" width="42.95" height="42.95" fill="#ffffff"/><polygon points="257.7,343.6 300.65,343.6 257.7,386.55" fill="#ffffff"/><rect x="300.65" y="343.6" width="42.95" height="42.95" fill="#fc9c9c"/><polygon points="343.59999999999997,343.6 343.59999999999997,386.55 300.65,386.55" fill="#fb7d7d"/><rect x="257.7" y="386.55" width="42.95" height="42.95" fill="#ffffff"/><polygon points="257.7,386.55 300.65,386.55 300.65,429.5" fill="#ffffff"/><rect x="300.65" y="386.55" width="42.95" height="42.95" fill="#ffffff"/><polygon points="300.65,386.55 343.59999999999997,429.5 300.65,429.5" fill="#f80f0f"/><rect x="343.6" y="343.6" width="85.9" height="85.9" fill="#ffffff"/><rect x="343.6" y="343.6" width="42.95" height="42.95" fill="#fed3d3"/><path d="M 343.6 343.6 A 42.95 42.95 0 0 1 386.55 386.55 L 343.6 386.55" fill="#ffffff"/><rect x="386.55" y="343.6" width="42.95" height="42.95" fill="#ffffff"/><path d="M 386.55 386.55 A 42.95 42.95 0 0 1  429.5 343.6 L 429.5 386.55" fill="#ffffff"/><rect x="343.6" y="386.55" width="42.95" height="42.95" fill="#ffffff"/><path d="M 343.6 429.5 A 42.95 42.95 0 0 0 386.55 386.55 L 343.6 386.55" fill="#ffffff"/><rect x="386.55" y="386.55" width="42.95" height="42.95" fill="#fa4444"/><path d="M 386.55 386.55 A 42.95 42.95 0 0 0 429.5 429.5 L 429.5 386.55" fill="#ffffff"/><rect x="429.5" y="343.6" width="85.9" height="85.9" fill="#fdb2b2"/><path d="M 429.5 343.6 A 85.9 85.9 0 0 1  515.4 429.5 L 429.5 343.6 A 85.9 85.9 0 0 0 515.4 429.5" fill="#ffffff"/><rect x="515.4" y="343.6" width="85.9" height="85.9" fill="#fed0d0"/><path d="M 515.4 343.6 A 85.9 85.9 0 0 1  601.3 429.5 L 515.4 343.6 A 85.9 85.9 0 0 0 601.3 429.5" fill="#ffffff"/><rect x="601.3" y="343.6" width="85.9" height="85.9" fill="#ffffff"/><polygon points="601.3,343.6 687.1999999999999,429.5 601.3,429.5" fill="#fffefe"/><rect x="687.2" y="343.6" width="85.9" height="85.9" fill="#ffffff"/><rect x="687.2" y="343.6" width="42.95" height="42.95" fill="#ffffff"/><circle cx="708.6750000000001" cy="365.07500000000005" r="21.475" fill="#f91616"/><rect x="730.15" y="343.6" width="42.95" height="42.95" fill="#fed9d9"/><rect x="730.15" y="343.6" width="42.95" height="42.95" fill="#fdbbbb"/><rect x="687.2" y="386.55" width="42.95" height="42.95" fill="#fa4747"/><circle cx="708.6750000000001" cy="408.02500000000003" r="21.475" fill="#fca3a3"/><rect x="730.15" y="386.55" width="42.95" height="42.95" fill="#ffffff"/><rect x="730.15" y="386.55" width="42.95" height="42.95" fill="#ffffff"/><rect x="773.1" y="343.6" width="85.9" height="85.9" fill="#ffffff"/><rect x="773.1" y="343.6" width="42.95" height="42.95" fill="#fdaaaa"/><polygon points="773.1,343.6 816.0500000000001,343.6 773.1,386.55" fill="#fb6f6f"/><rect x="816.05" y="343.6" width="42.95" height="42.95" fill="#fdafaf"/><polygon points="816.05,343.6 859,343.6 859,386.55" fill="#ffffff"/><rect x="773.1" y="386.55" width="42.95" height="42.95" fill="#ffffff"/><polygon points="773.1,386.55 816.0500000000001,429.5 773.1,429.5" fill="#f91e1e"/><rect x="816.05" y="386.55" width="42.95" height="42.95" fill="#ffffff"/><polygon points="859,386.55 859,429.5 816.05,429.5" fill="#ffffff"/><rect x="859" y="343.6" width="85.9" height="85.9" fill="#ffffff"/><rect x="859" y="343.6" width="42.95" height="42.95" fill="#ffffff"/><polygon points="859,343.6 901.95,343.6 859,386.55" fill="#ffffff"/><rect x="901.95" y="343.6" width="42.95" height="42.95" fill="#fecece"/><polygon points="944.9000000000001,343.6 944.9000000000001,386.55 901.95,386.55" fill="#f92626"/><rect x="859" y="386.55" width="42.95" height="42.95" fill="#fdbebe"/><polygon points="859,386.55 901.95,386.55 901.95,429.5" fill="#ffffff"/><rect x="901.95" y="386.55" width="42.95" height="42.95" fill="#f81010"/><polygon points="901.95,386.55 944.9000000000001,429.5 901.95,429.5" fill="#fb7777"/><rect x="0" y="429.5" width="85.9" height="85.9" fill="#ffffff"/><rect x="0" y="429.5" width="42.95" height="42.95" fill="#fa4d4d"/><path d="M 0 472.45 A 42.95 42.95 0 0 1  42.95 429.5 L 42.95 472.45" fill="#ffffff"/><rect x="42.95" y="429.5" width="42.95" height="42.95" fill="#ffffff"/><path d="M 42.95 429.5 A 42.95 42.95 0 0 1 85.9 472.45 L 42.95 472.45" fill="#fb6f6f"/><rect x="0" y="472.45" width="42.95" height="42.95" fill="#ffffff"/><path d="M 0 472.45 A 42.95 42.95 0 0 0 42.95 515.4 L 42.95 472.45" fill="#ffffff"/><rect x="42.95" y="472.45" width="42.95" height="42.95" fill="#ffffff"/><path d="M 42.95 515.4 A 42.95 42.95 0 0 0 85.9 472.45 L 42.95 472.45" fill="#ffffff"/><rect x="85.9" y="429.5" width="85.9" height="85.9" fill="#ffffff"/><rect x="85.9" y="429.5" width="42.95" height="42.95" fill="#fdb5b5"/><polygon points="85.9,429.5 128.85000000000002,429.5 85.9,472.45" fill="#fdb1b1"/><rect x="128.85" y="429.5" width="42.95" height="42.95" fill="#ffffff"/><polygon points="128.85,429.5 171.8,429.5 171.8,472.45" fill="#ffffff"/><rect x="85.9" y="472.45" width="42.95" height="42.95" fill="#fc9c9c"/><polygon points="128.85000000000002,472.45 128.85000000000002,515.4 85.9,515.4" fill="#fdbfbf"/><rect x="128.85" y="472.45" width="42.95" height="42.95" fill="#ffffff"/><polygon points="128.85,472.45 171.8,515.4 128.85,515.4" fill="#ffffff"/><rect x="171.8" y="429.5" width="85.9" height="85.9" fill="#fed1d1"/><polygon points="171.8,429.5 257.70000000000005,515.4 171.8,515.4" fill="#ffffff"/><rect x="257.70000000000005" y="429.5" width="85.9" height="85.9" fill="#ffffff"/><rect x="257.7" y="429.5" width="42.95" height="42.95" fill="#ffffff"/><polygon points="257.7,429.5 300.65,429.5 257.7,472.45" fill="#ffffff"/><rect x="300.65" y="429.5" width="42.95" height="42.95" fill="#ffffff"/><polygon points="300.65,429.5 343.59999999999997,429.5 343.59999999999997,472.45" fill="#fc8a8a"/><rect x="257.7" y="472.45" width="42.95" height="42.95" fill="#ffffff"/><polygon points="300.65,472.45 300.65,515.4 257.7,515.4" fill="#fdbaba"/><rect x="300.65" y="472.45" width="42.95" height="42.95" fill="#f91f1f"/><polygon points="300.65,472.45 343.59999999999997,515.4 300.65,515.4" fill="#fdc6c6"/><rect x="343.6" y="429.5" width="85.9" height="85.9" fill="#fa4c4c"/><rect x="343.6" y="429.5" width="85.9" height="85.9" fill="#fdb1b1"/><rect x="429.5" y="429.5" width="85.9" height="85.9" fill="#fa4343"/><path d="M 429.5 515.4 A 85.9 85.9 0 0 1  515.4 429.5 L 429.5 515.4 A 85.9 85.9 0 0 0 515.4 429.5" fill="#fee6e6"/><rect x="515.4000000000001" y="429.5" width="85.9" height="85.9" fill="#ffffff"/><rect x="515.4" y="429.5" width="42.95" height="42.95" fill="#fda4a4"/><polygon points="515.4,429.5 558.35,429.5 515.4,472.45" fill="#fdb1b1"/><rect x="558.35" y="429.5" width="42.95" height="42.95" fill="#fc9b9b"/><polygon points="558.35,429.5 601.3000000000001,429.5 601.3000000000001,472.45" fill="#ffffff"/><rect x="515.4" y="472.45" width="42.95" height="42.95" fill="#ffffff"/><polygon points="558.35,472.45 558.35,515.4 515.4,515.4" fill="#fa4242"/><rect x="558.35" y="472.45" width="42.95" height="42.95" fill="#ffffff"/><polygon points="558.35,472.45 601.3000000000001,515.4 558.35,515.4" fill="#ffffff"/><rect x="601.3" y="429.5" width="85.9" height="85.9" fill="#ffffff"/><path d="M 601.3 515.4 A 85.9 85.9 0 0 1  687.1999999999999 429.5 L 601.3 515.4 A 85.9 85.9 0 0 0 687.1999999999999 429.5" fill="#ffffff"/><rect x="687.2" y="429.5" width="85.9" height="85.9" fill="#feecec"/><polygon points="687.2,429.5 773.1,429.5 773.1,515.4" fill="#ffffff"/><rect x="773.1" y="429.5" width="85.9" height="85.9" fill="#ffffff"/><rect x="773.1" y="429.5" width="42.95" height="42.95" fill="#fed0d0"/><circle cx="794.575" cy="450.975" r="21.475" fill="#fa3c3c"/><rect x="816.05" y="429.5" width="42.95" height="42.95" fill="#f92929"/><rect x="816.05" y="429.5" width="42.95" height="42.95" fill="#fa5353"/><rect x="773.1" y="472.45" width="42.95" height="42.95" fill="#fee0e0"/><circle cx="794.575" cy="493.925" r="21.475" fill="#ffffff"/><rect x="816.05" y="472.45" width="42.95" height="42.95" fill="#ffffff"/><rect x="816.05" y="472.45" width="42.95" height="42.95" fill="#fa3e3e"/><rect x="859" y="429.5" width="85.9" height="85.9" fill="#fdabab"/><polygon points="859,429.5 944.9,429.5 859,515.4" fill="#f92828"/><rect x="0" y="515.4000000000001" width="85.9" height="85.9" fill="#ffffff"/><rect x="0" y="515.4" width="42.95" height="42.95" fill="#fee9e9"/><polygon points="0,515.4 42.95,515.4 0,558.35" fill="#ffffff"/><rect x="42.95" y="515.4" width="42.95" height="42.95" fill="#f92525"/><polygon points="42.95,515.4 85.9,515.4 85.9,558.35" fill="#f80c0c"/><rect x="0" y="558.35" width="42.95" height="42.95" fill="#ffffff"/><polygon points="42.95,558.35 42.95,601.3000000000001 0,601.3000000000001" fill="#ffffff"/><rect x="42.95" y="558.35" width="42.95" height="42.95" fill="#ffffff"/><polygon points="42.95,558.35 85.9,601.3000000000001 42.95,601.3000000000001" fill="#ffffff"/><rect x="85.9" y="515.4000000000001" width="85.9" height="85.9" fill="#ffffff"/><rect x="85.9" y="515.4" width="42.95" height="42.95" fill="#ffffff"/><path d="M 85.9 515.4 A 42.95 42.95 0 0 0 128.85000000000002 558.35 L 128.85000000000002 515.4" fill="#fb6060"/><rect x="128.85" y="515.4" width="42.95" height="42.95" fill="#fa5959"/><path d="M 128.85 558.35 A 42.95 42.95 0 0 0 171.8 515.4 L 128.85 515.4" fill="#fb6b6b"/><rect x="85.9" y="558.35" width="42.95" height="42.95" fill="#ffffff"/><path d="M 85.9 601.3000000000001 A 42.95 42.95 0 0 1  128.85000000000002 558.35 L 128.85000000000002 601.3000000000001" fill="#ffffff"/><rect x="128.85" y="558.35" width="42.95" height="42.95" fill="#ffffff"/><path d="M 128.85 558.35 A 42.95 42.95 0 0 1 171.8 601.3000000000001 L 128.85 601.3000000000001" fill="#fee7e7"/><rect x="171.8" y="515.4" width="85.9" height="85.9" fill="#ffffff"/><polygon points="171.8,515.4 257.70000000000005,515.4 257.70000000000005,601.3" fill="#fa4545"/><rect x="257.70000000000005" y="515.4000000000001" width="85.9" height="85.9" fill="#ffffff"/><rect x="257.7" y="515.4" width="42.95" height="42.95" fill="#ffffff"/><path d="M 257.7 558.35 A 42.95 42.95 0 0 0 300.65 515.4 L 257.7 515.4" fill="#fecfcf"/><rect x="300.65" y="515.4" width="42.95" height="42.95" fill="#fa3c3c"/><path d="M 300.65 515.4 A 42.95 42.95 0 0 0 343.59999999999997 558.35 L 343.59999999999997 515.4" fill="#ffffff"/><rect x="257.7" y="558.35" width="42.95" height="42.95" fill="#fc9494"/><path d="M 257.7 558.35 A 42.95 42.95 0 0 1 300.65 601.3000000000001 L 257.7 601.3000000000001" fill="#ffffff"/><rect x="300.65" y="558.35" width="42.95" height="42.95" fill="#fa4949"/><path d="M 300.65 601.3000000000001 A 42.95 42.95 0 0 1  343.59999999999997 558.35 L 343.59999999999997 601.3000000000001" fill="#fdc3c3"/><rect x="343.6" y="515.4000000000001" width="85.9" height="85.9" fill="#ffffff"/><rect x="343.6" y="515.4" width="42.95" height="42.95" fill="#f92727"/><path d="M 343.6 558.35 A 42.95 42.95 0 0 1 386.55 515.4 L 386.55 526.1374999999999 A 32.212500000000006 32.212500000000006 0 0 0 354.33750000000003 558.35" fill="#f81010"/><rect x="386.55" y="515.4" width="42.95" height="42.95" fill="#ffffff"/><path d="M 386.55 515.4 A 42.95 42.95 0 0 1 429.5 558.35 L 418.76250000000005 558.35 A 32.212500000000006 32.212500000000006 0 0 0 386.55 526.1374999999999" fill="#f80606"/><rect x="343.6" y="558.35" width="42.95" height="42.95" fill="#fda9a9"/><path d="M 343.6 558.35 A 42.95 42.95 0 0 0 386.55 601.3000000000001 L 386.55 590.5625 A 32.212500000000006 32.212500000000006 0 0 1 354.33750000000003 558.35" fill="#fb7979"/><rect x="386.55" y="558.35" width="42.95" height="42.95" fill="#fc8383"/><path d="M 386.55 601.3000000000001 A 42.95 42.95 0 0 0 429.5 558.35 L 418.76250000000005 558.35 A 32.212500000000006 32.212500000000006 0 0 1 386.55 590.5625" fill="#ffffff"/><rect x="429.5" y="515.4000000000001" width="85.9" height="85.9" fill="#ffffff"/><rect x="429.5" y="515.4" width="42.95" height="42.95" fill="#fec9c9"/><polygon points="429.5,515.4 472.45,515.4 429.5,558.35" fill="#ffffff"/><rect x="472.45" y="515.4" width="42.95" height="42.95" fill="#ffffff"/><polygon points="515.4,515.4 515.4,558.35 472.45,558.35" fill="#ffffff"/><rect x="429.5" y="558.35" width="42.95" height="42.95" fill="#ffffff"/><polygon points="429.5,558.35 472.45,558.35 472.45,601.3000000000001" fill="#fb5e5e"/><rect x="472.45" y="558.35" width="42.95" height="42.95" fill="#ffffff"/><polygon points="472.45,558.35 515.4,601.3000000000001 472.45,601.3000000000001" fill="#ffffff"/><rect x="515.4000000000001" y="515.4000000000001" width="85.9" height="85.9" fill="#ffffff"/><rect x="515.4" y="515.4" width="42.95" height="42.95" fill="#fc9393"/><polygon points="515.4,515.4 558.35,515.4 515.4,558.35" fill="#fdbaba"/><rect x="558.35" y="515.4" width="42.95" height="42.95" fill="#ffffff"/><polygon points="558.35,515.4 601.3000000000001,515.4 601.3000000000001,558.35" fill="#fdb0b0"/><rect x="515.4" y="558.35" width="42.95" height="42.95" fill="#fa3f3f"/><polygon points="515.4,558.35 558.35,601.3000000000001 515.4,601.3000000000001" fill="#ffffff"/><rect x="558.35" y="558.35" width="42.95" height="42.95" fill="#ffffff"/><polygon points="601.3000000000001,558.35 601.3000000000001,601.3000000000001 558.35,601.3000000000001" fill="#fc8686"/><rect x="601.3000000000001" y="515.4000000000001" width="85.9" height="85.9" fill="#ffffff"/><rect x="601.3" y="515.4" width="42.95" height="42.95" fill="#ffffff"/><circle cx="622.775" cy="536.875" r="21.475" fill="#ffffff"/><rect x="644.25" y="515.4" width="42.95" height="42.95" fill="#fdaaaa"/><rect x="644.25" y="515.4" width="42.95" height="42.95" fill="#fc8c8c"/><rect x="601.3" y="558.35" width="42.95" height="42.95" fill="#ffffff"/><circle cx="622.775" cy="579.825" r="21.475" fill="#ffffff"/><rect x="644.25" y="558.35" width="42.95" height="42.95" fill="#f81111"/><rect x="644.25" y="558.35" width="42.95" height="42.95" fill="#fee3e3"/><rect x="687.2" y="515.4000000000001" width="85.9" height="85.9" fill="#ffffff"/><rect x="687.2" y="515.4" width="42.95" height="42.95" fill="#ffffff"/><path d="M 687.2 558.35 A 42.95 42.95 0 0 1 730.1500000000001 515.4 L 730.1500000000001 526.1374999999999 A 32.212500000000006 32.212500000000006 0 0 0 697.9375 558.35" fill="#fee9e9"/><rect x="730.15" y="515.4" width="42.95" height="42.95" fill="#fedede"/><path d="M 730.15 515.4 A 42.95 42.95 0 0 1 773.1 558.35 L 762.3625 558.35 A 32.212500000000006 32.212500000000006 0 0 0 730.15 526.1374999999999" fill="#fc9e9e"/><rect x="687.2" y="558.35" width="42.95" height="42.95" fill="#fdb2b2"/><path d="M 687.2 558.35 A 42.95 42.95 0 0 0 730.1500000000001 601.3000000000001 L 730.1500000000001 590.5625 A 32.212500000000006 32.212500000000006 0 0 1 697.9375 558.35" fill="#ffffff"/><rect x="730.15" y="558.35" width="42.95" height="42.95" fill="#ffffff"/><path d="M 730.15 601.3000000000001 A 42.95 42.95 0 0 0 773.1 558.35 L 762.3625 558.35 A 32.212500000000006 32.212500000000006 0 0 1 730.15 590.5625" fill="#fa3d3d"/><rect x="773.1" y="515.4" width="85.9" height="85.9" fill="#ffffff"/><rect x="773.1" y="515.4" width="85.9" height="85.9" fill="#ffffff"/><rect x="859" y="515.4000000000001" width="85.9" height="85.9" fill="#ffffff"/><rect x="859" y="515.4" width="42.95" height="42.95" fill="#fc9999"/><polygon points="859,515.4 901.95,515.4 859,558.35" fill="#ffffff"/><rect x="901.95" y="515.4" width="42.95" height="42.95" fill="#fc9797"/><polygon points="901.95,515.4 944.9000000000001,515.4 944.9000000000001,558.35" fill="#ffffff"/><rect x="859" y="558.35" width="42.95" height="42.95" fill="#ffffff"/><polygon points="901.95,558.35 901.95,601.3000000000001 859,601.3000000000001" fill="#ffffff"/><rect x="901.95" y="558.35" width="42.95" height="42.95" fill="#fa4242"/><polygon points="901.95,558.35 944.9000000000001,601.3000000000001 901.95,601.3000000000001" fill="#ffffff"/><rect x="0" y="601.3" width="85.9" height="85.9" fill="#fecaca"/><polygon points="0,601.3 85.9,601.3 0,687.1999999999999" fill="#ffffff"/><rect x="85.9" y="601.3000000000001" width="85.9" height="85.9" fill="#ffffff"/><rect x="85.9" y="601.3" width="42.95" height="42.95" fill="#fb7171"/><path d="M 85.9 644.25 A 42.95 42.95 0 0 1  128.85000000000002 601.3 L 128.85000000000002 644.25" fill="#fed5d5"/><rect x="128.85" y="601.3" width="42.95" height="42.95" fill="#ffffff"/><path d="M 128.85 601.3 A 42.95 42.95 0 0 1 171.8 644.25 L 128.85 644.25" fill="#fdb7b7"/><rect x="85.9" y="644.25" width="42.95" height="42.95" fill="#fdc2c2"/><path d="M 85.9 644.25 A 42.95 42.95 0 0 0 128.85000000000002 687.2 L 128.85000000000002 644.25" fill="#ffffff"/><rect x="128.85" y="644.25" width="42.95" height="42.95" fill="#ffffff"/><path d="M 128.85 687.2 A 42.95 42.95 0 0 0 171.8 644.25 L 128.85 644.25" fill="#fa3d3d"/><rect x="171.8" y="601.3000000000001" width="85.9" height="85.9" fill="#ffffff"/><rect x="171.8" y="601.3" width="42.95" height="42.95" fill="#ffffff"/><polygon points="171.8,601.3 214.75,601.3 171.8,644.25" fill="#ffffff"/><rect x="214.75" y="601.3" width="42.95" height="42.95" fill="#ffffff"/><polygon points="257.7,601.3 257.7,644.25 214.75,644.25" fill="#f91919"/><rect x="171.8" y="644.25" width="42.95" height="42.95" fill="#fa3b3b"/><polygon points="171.8,644.25 214.75,644.25 214.75,687.2" fill="#f80d0d"/><rect x="214.75" y="644.25" width="42.95" height="42.95" fill="#ffffff"/><polygon points="214.75,644.25 257.7,687.2 214.75,687.2" fill="#ffffff"/><rect x="257.7" y="601.3" width="85.9" height="85.9" fill="#ffffff"/><rect x="257.7" y="601.3" width="85.9" height="85.9" fill="#fb6969"/><rect x="343.6" y="601.3000000000001" width="85.9" height="85.9" fill="#ffffff"/><rect x="343.6" y="601.3" width="42.95" height="42.95" fill="#ffffff"/><path d="M 343.6 601.3 A 42.95 42.95 0 0 0 386.55 644.25 L 386.55 601.3" fill="#ffffff"/><rect x="386.55" y="601.3" width="42.95" height="42.95" fill="#f80606"/><path d="M 386.55 644.25 A 42.95 42.95 0 0 0 429.5 601.3 L 386.55 601.3" fill="#ffffff"/><rect x="343.6" y="644.25" width="42.95" height="42.95" fill="#ffffff"/><path d="M 343.6 687.2 A 42.95 42.95 0 0 1  386.55 644.25 L 386.55 687.2" fill="#ffffff"/><rect x="386.55" y="644.25" width="42.95" height="42.95" fill="#ffffff"/><path d="M 386.55 644.25 A 42.95 42.95 0 0 1 429.5 687.2 L 386.55 687.2" fill="#fb6363"/><rect x="429.5" y="601.3" width="85.9" height="85.9" fill="#f92e2e"/><rect x="429.5" y="601.3" width="85.9" height="85.9" fill="#fb7979"/><rect x="515.4000000000001" y="601.3000000000001" width="85.9" height="85.9" fill="#ffffff"/><rect x="515.4" y="601.3" width="42.95" height="42.95" fill="#ffffff"/><path d="M 515.4 644.25 A 42.95 42.95 0 0 1  558.35 601.3 L 558.35 644.25" fill="#fdb4b4"/><rect x="558.35" y="601.3" width="42.95" height="42.95" fill="#f92727"/><path d="M 558.35 601.3 A 42.95 42.95 0 0 1 601.3000000000001 644.25 L 558.35 644.25" fill="#f92b2b"/><rect x="515.4" y="644.25" width="42.95" height="42.95" fill="#fa4444"/><path d="M 515.4 644.25 A 42.95 42.95 0 0 0 558.35 687.2 L 558.35 644.25" fill="#ffffff"/><rect x="558.35" y="644.25" width="42.95" height="42.95" fill="#fb7373"/><path d="M 558.35 687.2 A 42.95 42.95 0 0 0 601.3000000000001 644.25 L 558.35 644.25" fill="#fff7f7"/><rect x="601.3000000000001" y="601.3000000000001" width="85.9" height="85.9" fill="#ffffff"/><rect x="601.3" y="601.3" width="42.95" height="42.95" fill="#ffffff"/><polygon points="601.3,601.3 644.25,601.3 601.3,644.25" fill="#ffffff"/><rect x="644.25" y="601.3" width="42.95" height="42.95" fill="#ffffff"/><polygon points="644.25,601.3 687.2,601.3 687.2,644.25" fill="#ffffff"/><rect x="601.3" y="644.25" width="42.95" height="42.95" fill="#ffffff"/><polygon points="601.3,644.25 644.25,687.2 601.3,687.2" fill="#ffffff"/><rect x="644.25" y="644.25" width="42.95" height="42.95" fill="#f91d1d"/><polygon points="687.2,644.25 687.2,687.2 644.25,687.2" fill="#ffffff"/><rect x="687.2" y="601.3" width="85.9" height="85.9" fill="#ffffff"/><rect x="687.2" y="601.3" width="85.9" height="85.9" fill="#ffffff"/><rect x="773.1" y="601.3" width="85.9" height="85.9" fill="#f80303"/><polygon points="773.1,601.3 859,687.1999999999999 773.1,687.1999999999999" fill="#ffffff"/><rect x="859" y="601.3" width="85.9" height="85.9" fill="#ffffff"/><polygon points="859,601.3 944.9,687.1999999999999 859,687.1999999999999" fill="#fb6d6d"/><rect x="0" y="687.2" width="85.9" height="85.9" fill="#ffffff"/><rect x="0" y="687.2" width="42.95" height="42.95" fill="#ffffff"/><path d="M 0 730.1500000000001 A 42.95 42.95 0 0 1 42.95 687.2 L 42.95 697.9375 A 32.212500000000006 32.212500000000006 0 0 0 10.7375 730.1500000000001" fill="#ffffff"/><rect x="42.95" y="687.2" width="42.95" height="42.95" fill="#fc9292"/><path d="M 42.95 687.2 A 42.95 42.95 0 0 1 85.9 730.1500000000001 L 75.16250000000001 730.1500000000001 A 32.212500000000006 32.212500000000006 0 0 0 42.95 697.9375" fill="#fdb9b9"/><rect x="0" y="730.15" width="42.95" height="42.95" fill="#ffffff"/><path d="M 0 730.15 A 42.95 42.95 0 0 0 42.95 773.1 L 42.95 762.3625 A 32.212500000000006 32.212500000000006 0 0 1 10.7375 730.15" fill="#fb5e5e"/><rect x="42.95" y="730.15" width="42.95" height="42.95" fill="#ffffff"/><path d="M 42.95 773.1 A 42.95 42.95 0 0 0 85.9 730.15 L 75.16250000000001 730.15 A 32.212500000000006 32.212500000000006 0 0 1 42.95 762.3625" fill="#ffffff"/><rect x="85.9" y="687.2" width="85.9" height="85.9" fill="#ffffff"/><rect x="85.9" y="687.2" width="42.95" height="42.95" fill="#fb7878"/><circle cx="107.375" cy="708.6750000000001" r="21.475" fill="#ffffff"/><rect x="128.85" y="687.2" width="42.95" height="42.95" fill="#fb6767"/><rect x="128.85" y="687.2" width="42.95" height="42.95" fill="#f93131"/><rect x="85.9" y="730.15" width="42.95" height="42.95" fill="#ffffff"/><circle cx="107.375" cy="751.625" r="21.475" fill="#f91a1a"/><rect x="128.85" y="730.15" width="42.95" height="42.95" fill="#ffffff"/><rect x="128.85" y="730.15" width="42.95" height="42.95" fill="#fa3f3f"/><rect x="171.8" y="687.2" width="85.9" height="85.9" fill="#ffffff"/><rect x="171.8" y="687.2" width="42.95" height="42.95" fill="#feebeb"/><path d="M 171.8 687.2 A 42.95 42.95 0 0 1 214.75 730.1500000000001 L 171.8 730.1500000000001" fill="#ffffff"/><rect x="214.75" y="687.2" width="42.95" height="42.95" fill="#ffffff"/><path d="M 214.75 730.1500000000001 A 42.95 42.95 0 0 1  257.7 687.2 L 257.7 730.1500000000001" fill="#fdb5b5"/><rect x="171.8" y="730.15" width="42.95" height="42.95" fill="#fa4e4e"/><path d="M 171.8 773.1 A 42.95 42.95 0 0 0 214.75 730.15 L 171.8 730.15" fill="#fca1a1"/><rect x="214.75" y="730.15" width="42.95" height="42.95" fill="#fc9090"/><path d="M 214.75 730.15 A 42.95 42.95 0 0 0 257.7 773.1 L 257.7 730.15" fill="#ffffff"/><rect x="257.70000000000005" y="687.2" width="85.9" height="85.9" fill="#ffffff"/><rect x="257.7" y="687.2" width="42.95" height="42.95" fill="#ffffff"/><path d="M 257.7 687.2 A 42.95 42.95 0 0 0 300.65 730.1500000000001 L 300.65 687.2" fill="#ffffff"/><rect x="300.65" y="687.2" width="42.95" height="42.95" fill="#ffffff"/><path d="M 300.65 730.1500000000001 A 42.95 42.95 0 0 0 343.59999999999997 687.2 L 300.65 687.2" fill="#ffffff"/><rect x="257.7" y="730.15" width="42.95" height="42.95" fill="#f80606"/><path d="M 257.7 773.1 A 42.95 42.95 0 0 1  300.65 730.15 L 300.65 773.1" fill="#fdaeae"/><rect x="300.65" y="730.15" width="42.95" height="42.95" fill="#f91f1f"/><path d="M 300.65 730.15 A 42.95 42.95 0 0 1 343.59999999999997 773.1 L 300.65 773.1" fill="#ffffff"/><rect x="343.6" y="687.2" width="85.9" height="85.9" fill="#ffffff"/><rect x="343.6" y="687.2" width="42.95" height="42.95" fill="#fc9d9d"/><path d="M 343.6 730.1500000000001 A 42.95 42.95 0 0 1 386.55 687.2 L 386.55 697.9375 A 32.212500000000006 32.212500000000006 0 0 0 354.33750000000003 730.1500000000001" fill="#ffffff"/><rect x="386.55" y="687.2" width="42.95" height="42.95" fill="#fb5f5f"/><path d="M 386.55 687.2 A 42.95 42.95 0 0 1 429.5 730.1500000000001 L 418.76250000000005 730.1500000000001 A 32.212500000000006 32.212500000000006 0 0 0 386.55 697.9375" fill="#ffefef"/><rect x="343.6" y="730.15" width="42.95" height="42.95" fill="#ffffff"/><path d="M 343.6 730.15 A 42.95 42.95 0 0 0 386.55 773.1 L 386.55 762.3625 A 32.212500000000006 32.212500000000006 0 0 1 354.33750000000003 730.15" fill="#f92424"/><rect x="386.55" y="730.15" width="42.95" height="42.95" fill="#ffffff"/><path d="M 386.55 773.1 A 42.95 42.95 0 0 0 429.5 730.15 L 418.76250000000005 730.15 A 32.212500000000006 32.212500000000006 0 0 1 386.55 762.3625" fill="#ffffff"/><rect x="429.5" y="687.2" width="85.9" height="85.9" fill="#fb6868"/><path d="M 429.5 773.1 A 85.9 85.9 0 0 1  515.4 687.2 L 515.4 773.1" fill="#ffffff"/><rect x="515.4000000000001" y="687.2" width="85.9" height="85.9" fill="#ffffff"/><rect x="515.4" y="687.2" width="42.95" height="42.95" fill="#fb6d6d"/><polygon points="515.4,687.2 558.35,687.2 515.4,730.1500000000001" fill="#ffffff"/><rect x="558.35" y="687.2" width="42.95" height="42.95" fill="#fecdcd"/><polygon points="601.3000000000001,687.2 601.3000000000001,730.1500000000001 558.35,730.1500000000001" fill="#ffffff"/><rect x="515.4" y="730.15" width="42.95" height="42.95" fill="#ffffff"/><polygon points="515.4,730.15 558.35,730.15 558.35,773.1" fill="#fb6060"/><rect x="558.35" y="730.15" width="42.95" height="42.95" fill="#f93131"/><polygon points="558.35,730.15 601.3000000000001,773.1 558.35,773.1" fill="#ffffff"/><rect x="601.3000000000001" y="687.2" width="85.9" height="85.9" fill="#ffffff"/><rect x="601.3" y="687.2" width="42.95" height="42.95" fill="#fb6161"/><path d="M 601.3 730.1500000000001 A 42.95 42.95 0 0 1  644.25 687.2 L 644.25 730.1500000000001" fill="#ffffff"/><rect x="644.25" y="687.2" width="42.95" height="42.95" fill="#ffffff"/><path d="M 644.25 687.2 A 42.95 42.95 0 0 1 687.2 730.1500000000001 L 644.25 730.1500000000001" fill="#fb6060"/><rect x="601.3" y="730.15" width="42.95" height="42.95" fill="#ffffff"/><path d="M 601.3 730.15 A 42.95 42.95 0 0 0 644.25 773.1 L 644.25 730.15" fill="#ffffff"/><rect x="644.25" y="730.15" width="42.95" height="42.95" fill="#fca0a0"/><path d="M 644.25 773.1 A 42.95 42.95 0 0 0 687.2 730.15 L 644.25 730.15" fill="#ffffff"/><rect x="687.2" y="687.2" width="85.9" height="85.9" fill="#ffffff"/><polygon points="773.1,687.2 773.1,773.1 687.2,773.1" fill="#ffffff"/><rect x="773.1" y="687.2" width="85.9" height="85.9" fill="#ffffff"/><polygon points="773.1,687.2 859,687.2 773.1,773.1" fill="#ffffff"/><rect x="859" y="687.2" width="85.9" height="85.9" fill="#ffffff"/><rect x="859" y="687.2" width="42.95" height="42.95" fill="#ffffff"/><polygon points="859,687.2 901.95,687.2 859,730.1500000000001" fill="#fc9d9d"/><rect x="901.95" y="687.2" width="42.95" height="42.95" fill="#fb7373"/><polygon points="944.9000000000001,687.2 944.9000000000001,730.1500000000001 901.95,730.1500000000001" fill="#fee3e3"/><rect x="859" y="730.15" width="42.95" height="42.95" fill="#ffffff"/><polygon points="859,730.15 901.95,730.15 901.95,773.1" fill="#ffffff"/><rect x="901.95" y="730.15" width="42.95" height="42.95" fill="#fee6e6"/><polygon points="901.95,730.15 944.9000000000001,773.1 901.95,773.1" fill="#fc9e9e"/><rect x="0" y="773.1" width="85.9" height="85.9" fill="#ffffff"/><rect x="0" y="773.1" width="42.95" height="42.95" fill="#fda7a7"/><polygon points="0,773.1 42.95,773.1 0,816.0500000000001" fill="#ffffff"/><rect x="42.95" y="773.1" width="42.95" height="42.95" fill="#ffffff"/><polygon points="42.95,773.1 85.9,773.1 85.9,816.0500000000001" fill="#ffffff"/><rect x="0" y="816.05" width="42.95" height="42.95" fill="#ffffff"/><polygon points="42.95,816.05 42.95,859 0,859" fill="#f91414"/><rect x="42.95" y="816.05" width="42.95" height="42.95" fill="#f91c1c"/><polygon points="42.95,816.05 85.9,859 42.95,859" fill="#fa3b3b"/><rect x="85.9" y="773.1" width="85.9" height="85.9" fill="#ffffff"/><rect x="85.9" y="773.1" width="42.95" height="42.95" fill="#ffffff"/><path d="M 85.9 773.1 A 42.95 42.95 0 0 1 128.85000000000002 816.0500000000001 L 85.9 816.0500000000001" fill="#ffffff"/><rect x="128.85" y="773.1" width="42.95" height="42.95" fill="#ffffff"/><path d="M 128.85 816.0500000000001 A 42.95 42.95 0 0 1  171.8 773.1 L 171.8 816.0500000000001" fill="#f93232"/><rect x="85.9" y="816.05" width="42.95" height="42.95" fill="#f91414"/><path d="M 85.9 859 A 42.95 42.95 0 0 0 128.85000000000002 816.05 L 85.9 816.05" fill="#ffffff"/><rect x="128.85" y="816.05" width="42.95" height="42.95" fill="#fdaaaa"/><path d="M 128.85 816.05 A 42.95 42.95 0 0 0 171.8 859 L 171.8 816.05" fill="#ffffff"/><rect x="171.8" y="773.1" width="85.9" height="85.9" fill="#ffffff"/><rect x="171.8" y="773.1" width="42.95" height="42.95" fill="#ffffff"/><path d="M 171.8 816.0500000000001 A 42.95 42.95 0 0 1 214.75 773.1 L 214.75 783.8375 A 32.212500000000006 32.212500000000006 0 0 0 182.53750000000002 816.0500000000001" fill="#fa5050"/><rect x="214.75" y="773.1" width="42.95" height="42.95" fill="#ffffff"/><path d="M 214.75 773.1 A 42.95 42.95 0 0 1 257.7 816.0500000000001 L 246.9625 816.0500000000001 A 32.212500000000006 32.212500000000006 0 0 0 214.75 783.8375" fill="#f80505"/><rect x="171.8" y="816.05" width="42.95" height="42.95" fill="#ffffff"/><path d="M 171.8 816.05 A 42.95 42.95 0 0 0 214.75 859 L 214.75 848.2624999999999 A 32.212500000000006 32.212500000000006 0 0 1 182.53750000000002 816.05" fill="#ffffff"/><rect x="214.75" y="816.05" width="42.95" height="42.95" fill="#fee9e9"/><path d="M 214.75 859 A 42.95 42.95 0 0 0 257.7 816.05 L 246.9625 816.05 A 32.212500000000006 32.212500000000006 0 0 1 214.75 848.2624999999999" fill="#fdc8c8"/><rect x="257.7" y="773.1" width="85.9" height="85.9" fill="#fb5d5d"/><path d="M 257.7 773.1 A 85.9 85.9 0 0 0 343.6 859 L 343.6 773.1" fill="#fc8e8e"/><rect x="343.6" y="773.1" width="85.9" height="85.9" fill="#ffffff"/><rect x="343.6" y="773.1" width="42.95" height="42.95" fill="#ffffff"/><path d="M 343.6 773.1 A 42.95 42.95 0 0 0 386.55 816.0500000000001 L 386.55 773.1" fill="#ffffff"/><rect x="386.55" y="773.1" width="42.95" height="42.95" fill="#ffffff"/><path d="M 386.55 816.0500000000001 A 42.95 42.95 0 0 0 429.5 773.1 L 386.55 773.1" fill="#ffffff"/><rect x="343.6" y="816.05" width="42.95" height="42.95" fill="#ffffff"/><path d="M 343.6 859 A 42.95 42.95 0 0 1  386.55 816.05 L 386.55 859" fill="#ffffff"/><rect x="386.55" y="816.05" width="42.95" height="42.95" fill="#fb6969"/><path d="M 386.55 816.05 A 42.95 42.95 0 0 1 429.5 859 L 386.55 859" fill="#f91a1a"/><rect x="429.5" y="773.1" width="85.9" height="85.9" fill="#ffffff"/><rect x="429.5" y="773.1" width="42.95" height="42.95" fill="#ffffff"/><polygon points="429.5,773.1 472.45,773.1 429.5,816.0500000000001" fill="#ffffff"/><rect x="472.45" y="773.1" width="42.95" height="42.95" fill="#fed3d3"/><polygon points="472.45,773.1 515.4,773.1 515.4,816.0500000000001" fill="#ffffff"/><rect x="429.5" y="816.05" width="42.95" height="42.95" fill="#ffffff"/><polygon points="429.5,816.05 472.45,859 429.5,859" fill="#f91c1c"/><rect x="472.45" y="816.05" width="42.95" height="42.95" fill="#ffffff"/><polygon points="515.4,816.05 515.4,859 472.45,859" fill="#fc8585"/><rect x="515.4" y="773.1" width="85.9" height="85.9" fill="#ffffff"/><path d="M 515.4 773.1 A 85.9 85.9 0 0 0 601.3 859 L 601.3 773.1" fill="#ffffff"/><rect x="601.3000000000001" y="773.1" width="85.9" height="85.9" fill="#ffffff"/><rect x="601.3" y="773.1" width="42.95" height="42.95" fill="#fed6d6"/><path d="M 601.3 816.0500000000001 A 42.95 42.95 0 0 1 644.25 773.1 L 644.25 783.8375 A 32.212500000000006 32.212500000000006 0 0 0 612.0374999999999 816.0500000000001" fill="#ffffff"/><rect x="644.25" y="773.1" width="42.95" height="42.95" fill="#fb6c6c"/><path d="M 644.25 773.1 A 42.95 42.95 0 0 1 687.2 816.0500000000001 L 676.4625 816.0500000000001 A 32.212500000000006 32.212500000000006 0 0 0 644.25 783.8375" fill="#ffffff"/><rect x="601.3" y="816.05" width="42.95" height="42.95" fill="#fc8181"/><path d="M 601.3 816.05 A 42.95 42.95 0 0 0 644.25 859 L 644.25 848.2624999999999 A 32.212500000000006 32.212500000000006 0 0 1 612.0374999999999 816.05" fill="#fc9494"/><rect x="644.25" y="816.05" width="42.95" height="42.95" fill="#fff5f5"/><path d="M 644.25 859 A 42.95 42.95 0 0 0 687.2 816.05 L 676.4625 816.05 A 32.212500000000006 32.212500000000006 0 0 1 644.25 848.2624999999999" fill="#fdb4b4"/><rect x="687.2" y="773.1" width="85.9" height="85.9" fill="#fa5454"/><polygon points="687.2,773.1 773.1,773.1 773.1,859" fill="#fdb5b5"/><rect x="773.1" y="773.1" width="85.9" height="85.9" fill="#ffffff"/><rect x="773.1" y="773.1" width="42.95" height="42.95" fill="#f80303"/><path d="M 773.1 773.1 A 42.95 42.95 0 0 1 816.0500000000001 816.0500000000001 L 773.1 816.0500000000001" fill="#ffffff"/><rect x="816.05" y="773.1" width="42.95" height="42.95" fill="#ffffff"/><path d="M 816.05 816.0500000000001 A 42.95 42.95 0 0 1  859 773.1 L 859 816.0500000000001" fill="#ffffff"/><rect x="773.1" y="816.05" width="42.95" height="42.95" fill="#fb6a6a"/><path d="M 773.1 859 A 42.95 42.95 0 0 0 816.0500000000001 816.05 L 773.1 816.05" fill="#f91a1a"/><rect x="816.05" y="816.05" width="42.95" height="42.95" fill="#f80404"/><path d="M 816.05 816.05 A 42.95 42.95 0 0 0 859 859 L 859 816.05" fill="#fffcfc"/><rect x="859" y="773.1" width="85.9" height="85.9" fill="#f80808"/><rect x="859" y="773.1" width="85.9" height="85.9" fill="#ffffff"/></g></svg>